<?xml version="1.0" standalone="no"?>
<!DOCTYPE svg PUBLIC "-//W3C//DTD SVG 20010904//EN"
 "http://www.w3.org/TR/2001/REC-SVG-20010904/DTD/svg10.dtd">
<svg version="1.0" xmlns="http://www.w3.org/2000/svg"
 width="600.000000pt" height="400.000000pt" viewBox="0 0 600.000000 400.000000"
 preserveAspectRatio="xMidYMid meet">
<g transform="translate(0.000000,400.000000) scale(0.100000,-0.100000)"
fill="#000000" stroke="none">
<path d="M2242 2747 c-17 -20 -62 -120 -62 -138 0 -16 19 -29 40 -29 10 0 110
120 110 132 0 15 -40 48 -59 48 -10 0 -23 -6 -29 -13z m47 -19 c19 -11 19 -13
1 -35 -40 -51 -82 -95 -86 -91 -5 5 55 138 62 138 2 0 13 -5 23 -12z"/>
<path d="M1963 2706 l-27 -24 27 -35 c76 -100 157 -96 107 5 -43 83 -61 93
-107 54z m80 -52 c16 -31 25 -59 22 -62 -3 -3 -22 10 -42 29 -20 19 -43 39
-50 46 -11 10 -9 15 9 27 12 9 25 16 28 16 3 0 18 -25 33 -56z"/>
<path d="M2112 2688 c-18 -18 -15 -63 6 -88 17 -21 19 -21 35 -5 30 30 17 105
-18 105 -6 0 -16 -5 -23 -12z m38 -50 c0 -47 -14 -42 -25 10 -5 25 -3 32 9 32
12 0 16 -10 16 -42z"/>
<path d="M1440 2630 c-11 -11 -20 -33 -20 -50 0 -52 29 -70 113 -70 39 0 78
-4 85 -9 7 -4 60 -148 117 -319 57 -172 112 -327 124 -345 11 -18 32 -39 46
-47 28 -15 32 -32 11 -49 -8 -7 -18 -26 -21 -42 -5 -20 -12 -29 -21 -25 -11 4
-12 2 -1 -14 6 -11 14 -15 16 -9 2 6 11 -2 21 -18 l17 -28 -46 -11 c-42 -9
-38 -10 64 -12 120 -1 145 3 145 23 0 7 7 15 15 19 22 8 19 72 -6 112 l-21 34
143 0 c135 0 141 -1 127 -17 -18 -20 -40 -93 -29 -93 4 0 14 -18 21 -40 l13
-40 79 0 c70 0 79 2 76 18 -2 10 3 17 12 16 11 -1 15 8 14 33 0 19 4 37 10 41
6 4 18 16 26 27 14 19 14 19 -2 6 -16 -12 -20 -10 -37 10 -19 23 -19 24 9 41
45 27 52 86 12 107 -9 5 -141 12 -292 15 -219 6 -278 10 -290 22 -18 17 -56
16 320 14 l305 -1 36 30 c28 23 39 43 52 93 36 135 67 293 67 335 0 58 -29 99
-78 113 -46 12 -132 13 -152 0 -10 -6 -26 4 -61 40 -30 31 -61 53 -89 61 -39
12 -46 11 -86 -10 -24 -13 -79 -30 -121 -37 -43 -7 -89 -15 -103 -18 -13 -3
-39 0 -57 6 -26 10 -38 9 -71 -6 -51 -23 -79 -62 -93 -128 l-12 -52 -28 84
c-66 193 -85 210 -236 210 -90 0 -106 -3 -123 -20z m152 -10 c120 0 125 -6
221 -300 42 -129 84 -245 92 -257 l16 -23 320 0 319 0 10 23 c19 48 54 225 55
277 l0 55 -42 -1 c-30 0 -43 3 -43 13 0 8 -7 27 -15 43 l-16 30 76 0 c102 0
144 -24 145 -82 0 -33 -66 -342 -82 -381 -23 -57 -22 -57 -390 -57 l-338 0 19
-39 c11 -21 27 -41 36 -45 9 -3 137 -6 285 -6 231 0 271 -2 284 -16 20 -20 20
-29 0 -49 -14 -14 -47 -15 -293 -10 -152 3 -291 8 -308 11 -56 8 -75 49 -188
392 -58 177 -112 325 -118 329 -7 5 -52 10 -102 13 l-90 5 -3 31 c-2 24 2 33
20 42 13 6 29 9 36 6 8 -2 50 -4 94 -4z m817 -68 c61 -45 130 -183 138 -277 4
-41 2 -53 -15 -68 -29 -26 -67 -15 -120 33 -49 45 -58 47 -90 24 -22 -15 -32
-14 -93 10 -9 4 -30 -5 -55 -25 -32 -25 -45 -30 -74 -25 -35 5 -36 5 -55 -46
-25 -65 -64 -96 -99 -80 -46 21 -78 121 -79 251 -1 90 13 127 62 155 29 17 38
18 67 7 27 -10 49 -9 115 4 44 8 95 15 111 15 18 0 43 11 61 26 25 21 38 25
66 20 20 -3 47 -14 60 -24z m193 -204 c2 -13 -1 -43 -7 -68 l-11 -45 -7 45
c-4 25 -10 55 -13 68 -5 17 -2 22 14 22 12 0 21 -8 24 -22z m-202 -133 c19
-20 52 -41 73 -47 33 -10 41 -9 67 11 l30 22 0 -21 c0 -12 -5 -41 -11 -66
l-11 -44 -264 0 c-145 0 -264 1 -264 3 0 2 15 30 33 62 29 55 34 60 63 57 22
-2 40 5 62 22 34 29 43 31 87 15 25 -9 37 -9 61 4 38 21 35 22 74 -18z m-335
-480 c52 -51 17 -135 -56 -135 -57 0 -94 37 -85 88 11 71 92 97 141 47z m410
19 c23 -9 48 -62 41 -90 -24 -95 -166 -80 -166 17 0 59 64 96 125 73z"/>
<path d="M1710 2525 c0 -5 5 -17 10 -25 5 -8 10 -10 10 -5 0 6 -5 17 -10 25
-5 8 -10 11 -10 5z"/>
<path d="M2615 2451 c63 -8 72 -14 84 -54 7 -26 9 -27 10 -9 1 13 -10 34 -24
47 -19 20 -33 25 -72 24 l-48 -2 50 -6z"/>
<path d="M1751 2410 c0 -8 4 -24 9 -35 5 -13 9 -14 9 -5 0 8 -4 24 -9 35 -5
13 -9 14 -9 5z"/>
<path d="M2692 2340 c0 -14 2 -19 5 -12 2 6 2 18 0 25 -3 6 -5 1 -5 -13z"/>
<path d="M1782 2315 c0 -5 6 -26 13 -45 7 -19 14 -28 14 -20 0 8 -6 29 -14 45
-7 17 -13 26 -13 20z"/>
<path d="M2671 2249 c-7 -33 -10 -63 -8 -65 2 -3 10 23 16 57 7 33 10 63 8 65
-2 3 -10 -23 -16 -57z"/>
<path d="M1812 2225 c0 -5 6 -26 13 -45 7 -19 14 -28 14 -20 0 8 -6 29 -14 45
-7 17 -13 26 -13 20z"/>
<path d="M2641 2114 c-7 -30 -11 -58 -8 -61 3 -2 11 21 17 52 6 31 10 59 7 61
-2 2 -9 -21 -16 -52z"/>
<path d="M1850 2101 c0 -6 4 -13 10 -16 6 -3 7 1 4 9 -7 18 -14 21 -14 7z"/>
<path d="M2590 2056 c0 -8 -10 -22 -22 -30 -12 -9 -17 -16 -11 -16 16 0 43 29
43 46 0 8 -2 14 -5 14 -3 0 -5 -6 -5 -14z"/>
<path d="M2603 2014 c-12 -13 -18 -24 -13 -24 11 0 40 29 40 41 0 12 -1 11
-27 -17z"/>
<path d="M1931 2016 c2 -2 117 -6 254 -8 138 -3 230 -2 205 3 -44 7 -467 13
-459 5z"/>
<path d="M2463 2003 c15 -2 39 -2 55 0 15 2 2 4 -28 4 -30 0 -43 -2 -27 -4z"/>
<path d="M1865 1935 c7 -37 33 -73 65 -93 22 -14 22 -12 -4 13 -15 15 -37 46
-48 69 -16 35 -18 36 -13 11z"/>
<path d="M2210 1835 c-14 -8 -20 -14 -15 -14 6 0 21 6 35 14 14 8 21 14 15 14
-5 0 -21 -6 -35 -14z"/>
<path d="M2331 2506 c-10 -12 -8 -17 7 -25 15 -8 23 -7 32 4 13 16 6 35 -14
35 -8 0 -19 -6 -25 -14z"/>
<path d="M2393 2464 c-4 -11 1 -22 12 -31 16 -11 21 -11 33 1 8 8 12 22 9 30
-8 21 -46 21 -54 0z m24 -16 c-3 -8 -6 -5 -6 6 -1 11 2 17 5 13 3 -3 4 -12 1
-19z"/>
<path d="M2194 2449 c-3 -6 -1 -16 4 -21 13 -13 45 8 36 23 -7 12 -31 11 -40
-2z"/>
<path d="M2297 2446 c-6 -15 11 -36 29 -36 17 0 24 26 11 39 -15 15 -34 14
-40 -3z"/>
<path d="M1949 2443 c-1 -5 0 -18 1 -30 1 -15 -4 -23 -14 -23 -20 0 -28 -14
-20 -35 4 -10 14 -15 25 -12 11 3 19 -2 22 -14 7 -27 42 -23 55 6 6 14 16 25
22 25 6 0 10 12 8 28 -2 21 -8 27 -24 25 -14 -2 -24 4 -27 17 -5 19 -46 29
-48 13z m61 -68 c0 -18 -27 -26 -39 -11 -7 9 -7 16 0 23 14 14 39 6 39 -12z"/>
<path d="M1901 2424 c0 -11 3 -14 6 -6 3 7 2 16 -1 19 -3 4 -6 -2 -5 -13z"/>
<path d="M2100 2425 c0 -8 9 -15 20 -15 11 0 20 7 20 15 0 8 -9 15 -20 15 -11
0 -20 -7 -20 -15z"/>
<path d="M2353 2394 c-4 -11 1 -22 12 -31 16 -11 21 -11 33 1 8 8 12 22 9 30
-8 21 -46 21 -54 0z"/>
<path d="M2254 2356 c-15 -40 21 -80 54 -60 37 24 21 74 -25 74 -13 0 -26 -6
-29 -14z m46 -26 c0 -5 -4 -10 -10 -10 -5 0 -10 5 -10 10 0 6 5 10 10 10 6 0
10 -4 10 -10z"/>
<path d="M2098 2333 c-22 -5 -33 -40 -18 -58 29 -35 92 -5 71 33 -12 22 -28
30 -53 25z"/>
<path d="M2185 2320 l-20 -9 20 0 c11 0 27 4 35 9 13 9 13 10 0 9 -8 0 -24 -4
-35 -9z"/>
<path d="M2365 2303 c11 -3 38 -20 60 -38 22 -18 51 -36 65 -40 16 -5 9 4 -22
24 -25 17 -52 38 -58 46 -7 8 -24 14 -39 14 -20 -1 -22 -2 -6 -6z"/>
<path d="M2026 2226 c-31 -69 -64 -89 -98 -60 l-23 18 22 -23 c35 -38 67 -23
104 50 16 34 28 63 25 66 -3 3 -16 -20 -30 -51z"/>
<path d="M2413 2134 c-8 -22 15 -43 27 -24 5 8 10 21 10 28 0 17 -30 15 -37
-4z m27 -3 c0 -6 -4 -13 -10 -16 -5 -3 -10 1 -10 9 0 9 5 16 10 16 6 0 10 -4
10 -9z"/>
<path d="M1976 1704 c-19 -18 -19 -20 -6 -45 12 -21 50 -25 68 -7 18 18 14 46
-7 58 -27 14 -37 13 -55 -6z"/>
<path d="M2402 1708 c-7 -7 -12 -20 -12 -29 0 -43 72 -53 78 -11 6 42 -37 69
-66 40z"/>
<path d="M1837 2559 c-11 -40 10 -62 32 -35 9 11 9 19 -1 35 -16 27 -24 26
-31 0z m28 -19 c-3 -5 -11 -10 -16 -10 -6 0 -7 5 -4 10 3 6 11 10 16 10 6 0 7
-4 4 -10z"/>
<path d="M2922 2450 c-39 -24 -72 -75 -72 -112 0 -34 43 -85 88 -103 52 -22
33 -28 -22 -8 l-48 18 -24 -30 c-46 -58 -23 -96 74 -120 l47 -12 -33 -8 c-18
-4 -49 -22 -68 -41 -28 -29 -34 -42 -34 -77 0 -23 7 -52 15 -64 13 -18 12 -22
-6 -39 -35 -32 -51 -70 -36 -86 7 -7 16 -21 20 -31 4 -10 11 -16 16 -12 15 9
101 -16 101 -29 0 -6 5 -3 11 7 10 17 12 17 37 1 24 -16 26 -16 13 -1 -11 14
-11 18 5 23 11 3 31 12 46 20 25 13 28 13 38 -6 7 -13 21 -20 40 -20 21 0 30
-5 30 -16 0 -8 5 -12 10 -9 6 4 8 11 5 16 -4 5 0 9 7 9 19 0 34 29 43 78 6 36
10 42 31 42 22 0 24 -4 24 -47 0 -71 7 -77 81 -74 28 1 38 6 47 26 7 14 12 36
12 48 0 19 4 17 31 -16 33 -40 83 -72 99 -62 6 3 10 1 10 -5 0 -8 7 -9 18 -5
9 4 31 9 49 10 40 5 70 20 106 53 25 24 27 25 27 5 0 -32 32 -53 79 -53 40 0
43 2 58 40 15 36 19 40 51 40 50 0 118 36 142 74 24 41 26 107 4 142 -26 39
-69 55 -164 61 -85 5 -87 5 -108 -22 -12 -15 -22 -37 -22 -49 -1 -20 -2 -20
-23 5 -38 46 -87 69 -145 69 -61 0 -103 -16 -149 -54 l-33 -28 0 29 c0 39 -16
53 -60 53 -44 0 -66 -21 -75 -72 -6 -31 -11 -38 -31 -38 -21 0 -24 5 -24 39 0
30 -6 44 -22 55 -32 22 -74 20 -97 -6 -17 -17 -23 -19 -35 -9 -9 7 -34 18 -57
25 l-42 13 40 19 c37 19 41 19 51 4 7 -11 26 -17 55 -18 39 -2 49 2 70 28 22
26 32 30 76 30 36 0 51 -4 51 -13 0 -36 97 -67 115 -37 4 7 12 7 25 0 29 -16
75 -12 93 8 8 9 19 37 24 62 l9 45 64 3 c35 2 70 8 77 14 16 13 17 80 1 96 -7
7 -37 13 -67 14 -52 1 -51 2 19 7 57 5 76 3 78 -7 2 -7 -4 -58 -13 -113 -16
-95 -16 -101 1 -120 25 -28 89 -26 108 4 21 34 63 314 50 335 -13 21 -89 28
-110 11 -11 -9 -18 -9 -26 -1 -8 8 -55 12 -135 12 -147 0 -145 2 -163 -135 -7
-49 -13 -95 -14 -102 -7 -48 -21 -6 -47 137 -15 84 -29 100 -89 100 -53 0 -66
-11 -120 -100 -18 -30 -44 -72 -58 -93 l-25 -38 -15 31 c-8 17 -33 42 -56 55
-23 14 -34 25 -24 25 9 0 20 -4 23 -10 12 -20 35 -9 61 30 22 34 25 42 14 56
-40 47 -167 61 -228 24z m194 -25 l24 -16 -21 -29 c-20 -27 -24 -28 -43 -15
-26 19 -90 19 -105 1 -15 -18 -1 -29 70 -55 63 -24 85 -52 75 -99 -13 -57 -72
-92 -157 -92 -48 0 -111 19 -122 36 -3 5 5 22 17 37 22 27 23 27 52 12 32 -16
91 -20 113 -6 25 16 3 39 -52 55 -29 8 -62 25 -72 36 -39 43 -9 124 56 148 42
15 133 9 165 -13z m314 -125 c15 -74 30 -145 34 -157 7 -22 5 -23 -43 -23 -50
0 -51 1 -51 30 l0 30 -69 0 c-67 0 -70 -1 -83 -30 -12 -28 -17 -30 -65 -30
l-51 0 100 160 100 161 50 -3 51 -3 27 -135z m356 124 c-3 -9 -6 -23 -6 -32 0
-15 -11 -17 -84 -14 l-84 3 -4 -35 -4 -36 73 0 73 0 0 -36 0 -35 -77 2 -78 2
-9 -61 -9 -62 -43 0 c-24 0 -44 2 -44 4 0 2 11 71 25 153 14 81 25 151 25 156
0 4 57 7 126 7 111 0 125 -2 120 -16z m134 6 c0 -14 -40 -260 -47 -287 -4 -20
-12 -23 -50 -23 -38 0 -44 3 -39 18 4 15 46 282 46 296 0 3 20 6 45 6 25 0 45
-4 45 -10z m-851 -391 c36 -13 37 -15 13 -51 -16 -24 -19 -25 -42 -12 -45 24
-100 15 -100 -16 0 -13 10 -21 33 -25 38 -9 89 -33 99 -49 12 -17 9 -69 -5
-86 -7 -9 -23 -24 -37 -33 -32 -22 -139 -23 -181 -2 l-30 16 18 29 c20 34 21
35 47 15 22 -16 83 -20 105 -6 24 15 4 38 -44 50 -49 12 -95 49 -95 76 0 31
32 77 63 90 39 17 113 19 156 4z m168 -3 c-3 -7 -9 -35 -12 -60 l-7 -47 58 3
c55 3 59 5 62 28 9 89 10 90 54 90 39 0 40 -1 35 -27 -3 -16 -13 -83 -23 -150
l-18 -123 -41 0 -42 0 8 48 c5 26 11 53 14 60 3 9 -13 12 -60 12 -65 0 -65 0
-65 -29 0 -16 -3 -43 -6 -60 -6 -28 -10 -31 -45 -31 -22 0 -39 3 -39 6 0 12
41 270 44 280 2 6 23 11 46 12 32 2 41 -1 37 -12z m491 -13 c40 -29 59 -90 44
-142 -14 -44 -52 -95 -86 -113 -62 -33 -159 -26 -204 15 -68 64 -34 204 62
249 54 25 144 21 184 -9z m289 12 c35 -6 73 -46 73 -77 0 -69 -75 -128 -162
-128 -45 0 -45 0 -52 -40 -6 -39 -7 -40 -47 -40 -39 0 -40 1 -35 28 3 15 12
77 21 137 9 61 18 115 20 122 4 12 107 11 182 -2z m-912 -112 c-6 -24 -7 -25
-22 -10 -15 15 -15 18 2 37 22 24 30 13 20 -27z"/>
<path d="M3316 2330 c-11 -19 -26 -45 -34 -57 -14 -23 -14 -23 32 -23 31 0 45
4 41 11 -4 5 -10 31 -14 57 l-7 47 -18 -35z"/>
<path d="M3573 1970 c-22 -13 -36 -32 -44 -60 -11 -36 -10 -44 8 -68 45 -61
146 -24 160 60 4 30 1 41 -20 62 -31 31 -61 33 -104 6z m87 -60 c0 -31 -5 -43
-24 -56 -14 -8 -35 -14 -48 -12 -18 2 -24 10 -26 39 -4 46 18 69 64 69 33 0
34 -1 34 -40z"/>
<path d="M3900 1958 c0 -13 -3 -32 -6 -44 -5 -18 -2 -20 28 -17 63 8 77 13 83
34 10 31 -12 49 -61 49 -39 0 -44 -3 -44 -22z m70 -17 c0 -5 -9 -11 -20 -14
-13 -3 -20 0 -20 9 0 8 9 14 20 14 11 0 20 -4 20 -9z"/>
<path d="M1602 2434 c-7 -8 -8 -14 -3 -14 10 0 25 19 20 25 -2 1 -10 -3 -17
-11z"/>
<path d="M1600 2231 c13 -10 13 -12 0 -22 -13 -9 -13 -10 0 -6 8 2 15 10 15
17 0 7 -7 15 -15 17 -13 4 -13 3 0 -6z"/>
<path d="M1660 2065 c-10 -13 -9 -19 5 -36 19 -20 19 -20 39 0 16 17 17 23 6
35 -16 20 -34 20 -50 1z m40 -15 c0 -5 -7 -10 -15 -10 -8 0 -15 5 -15 10 0 6
7 10 15 10 8 0 15 -4 15 -10z"/>
<path d="M3090 1699 c0 -5 5 -7 10 -4 6 3 10 8 10 11 0 2 -4 4 -10 4 -5 0 -10
-5 -10 -11z"/>
<path d="M3130 1700 c0 -5 5 -10 11 -10 5 0 7 5 4 10 -3 6 -8 10 -11 10 -2 0
-4 -4 -4 -10z"/>
<path d="M4090 1700 c-8 -5 -10 -10 -5 -10 6 0 17 5 25 10 8 5 11 10 5 10 -5
0 -17 -5 -25 -10z"/>
<path d="M3668 1693 c6 -2 18 -2 25 0 6 3 1 5 -13 5 -14 0 -19 -2 -12 -5z"/>
<path d="M2760 1679 c0 -5 10 -13 21 -20 17 -9 20 -8 14 2 -6 9 -3 11 9 6 9
-4 15 -3 12 2 -8 12 -56 20 -56 10z"/>
<path d="M2634 1654 c-4 -14 -3 -29 2 -34 5 -5 9 6 10 26 1 41 -3 43 -12 8z"/>
<path d="M2726 1664 c-4 -11 -15 -14 -36 -10 -22 3 -30 0 -30 -11 0 -13 2 -13
16 -2 15 12 16 11 10 -9 -10 -29 7 -28 29 2 10 13 23 23 29 22 6 -2 8 -1 3 1
-4 3 -5 9 -1 14 3 5 1 9 -4 9 -6 0 -13 -7 -16 -16z"/>
<path d="M4033 1654 c-14 -22 -54 -41 -83 -39 -8 0 -18 -3 -21 -8 -8 -11 -80
-14 -97 -3 -6 4 -12 3 -12 -2 0 -8 -28 -8 -167 2 -48 3 -73 1 -73 -6 0 -7 -4
-7 -12 -1 -16 12 -49 13 -42 1 3 -4 14 -8 25 -8 10 0 19 -4 19 -10 0 -10 -40
-14 -87 -10 -13 1 -23 -3 -23 -8 0 -5 25 -8 55 -7 30 1 53 -1 51 -4 -2 -3 7
-7 20 -7 13 -1 22 1 20 5 -3 4 10 7 29 7 19 0 32 -2 30 -5 -2 -4 17 -5 41 -4
28 1 44 -2 44 -10 0 -8 3 -7 9 2 5 7 14 10 20 7 6 -4 11 -2 11 4 0 7 7 5 16
-4 8 -9 23 -16 32 -15 14 0 13 2 -3 9 -16 7 -14 9 14 9 19 1 32 3 29 7 -3 3
-64 7 -134 9 -71 2 -137 4 -146 4 -10 1 -18 5 -18 9 0 5 125 7 278 5 167 -2
272 0 263 6 -7 4 -22 6 -32 4 -26 -7 -25 23 1 39 11 7 20 19 20 26 0 8 -22 -4
-51 -27 -68 -54 -84 -53 -23 2 33 31 42 44 30 44 -10 0 -24 -10 -33 -23z m-66
-60 c-3 -3 -12 -4 -19 -1 -8 3 -5 6 6 6 11 1 17 -2 13 -5z"/>
<path d="M2183 1663 c9 -2 25 -2 35 0 9 3 1 5 -18 5 -19 0 -27 -2 -17 -5z"/>
<path d="M2236 1655 c-11 -8 -15 -15 -9 -15 7 0 15 5 18 10 10 17 35 11 35 -7
0 -15 2 -16 10 -3 6 9 5 17 -3 22 -17 11 -29 9 -51 -7z"/>
<path d="M2137 1644 c6 -17 36 -19 31 -2 -2 6 -11 12 -20 14 -11 1 -15 -3 -11
-12z"/>
<path d="M2586 1652 c-2 -4 4 -8 14 -8 10 0 16 4 14 8 -3 4 -9 8 -14 8 -5 0
-11 -4 -14 -8z"/>
<path d="M2306 1633 c-6 -14 -5 -15 5 -6 7 7 10 15 7 18 -3 3 -9 -2 -12 -12z"/>
<path d="M2801 1641 c-8 -5 -20 -7 -27 -4 -6 2 -15 -1 -20 -8 -5 -8 -3 -10 6
-4 9 5 11 4 6 -3 -4 -7 -14 -12 -22 -12 -8 0 -14 -3 -14 -7 0 -12 55 -9 71 3
8 6 21 14 29 17 12 4 11 6 -3 6 -10 1 -15 6 -12 11 8 12 4 12 -14 1z m-5 -26
c-8 -8 -18 -15 -22 -15 -3 0 -1 7 6 15 7 8 17 15 22 15 5 0 3 -7 -6 -15z"/>
<path d="M3920 1640 c-8 -5 -12 -11 -9 -14 2 -3 11 -1 19 4 8 5 12 11 9 14 -2
3 -11 1 -19 -4z"/>
<path d="M3960 1640 c0 -5 5 -10 11 -10 5 0 7 5 4 10 -3 6 -8 10 -11 10 -2 0
-4 -4 -4 -10z"/>
<path d="M2556 1625 c4 -8 11 -15 16 -15 6 0 5 6 -2 15 -7 8 -14 15 -16 15 -2
0 -1 -7 2 -15z"/>
<path d="M2943 1630 c-13 -5 -23 -11 -23 -14 0 -7 40 6 46 15 6 10 6 10 -23
-1z"/>
<path d="M3140 1635 c0 -7 30 -13 34 -7 3 4 -4 9 -15 9 -10 1 -19 0 -19 -2z"/>
<path d="M3208 1630 c12 -5 22 -15 22 -21 0 -8 -6 -7 -17 2 -16 13 -17 12 -4
-3 7 -10 17 -16 21 -13 5 3 10 2 12 -3 1 -4 17 -5 33 -1 l30 7 -35 1 -35 1 25
21 c21 17 22 19 3 10 -26 -13 -36 -14 -29 -3 2 4 -7 8 -22 9 -26 2 -26 1 -4
-7z"/>
<path d="M2197 1616 c-7 -17 -37 -22 -37 -6 0 6 -5 10 -11 10 -5 0 -7 -5 -3
-12 5 -8 0 -9 -14 -6 -12 4 -25 2 -28 -3 -3 -5 7 -9 23 -9 15 0 70 -2 121 -3
66 -2 92 1 92 9 0 7 -8 10 -20 7 -11 -3 -34 1 -52 8 -25 10 -33 10 -36 0 -3
-8 -8 -7 -16 5 -12 15 -13 15 -19 0z"/>
<path d="M2586 1613 c-3 -7 -16 -13 -30 -13 -14 0 -27 -4 -31 -9 -7 -12 36
-10 53 2 8 6 12 6 12 -1 0 -5 11 -9 25 -8 14 0 25 5 25 10 0 4 -9 6 -20 3 -11
-3 -23 -1 -26 4 -3 5 2 9 10 9 9 0 16 4 16 8 0 14 -29 10 -34 -5z"/>
<path d="M2985 1620 c3 -6 -1 -11 -9 -11 -50 -4 -56 -15 -7 -14 37 0 52 19 24
29 -8 3 -11 1 -8 -4z"/>
<path d="M3030 1619 c0 -5 5 -7 10 -4 6 3 10 8 10 11 0 2 -4 4 -10 4 -5 0 -10
-5 -10 -11z"/>
<path d="M3460 1620 c-9 -6 -10 -10 -3 -10 6 0 15 5 18 10 8 12 4 12 -15 0z"/>
<path d="M2657 1605 c-4 -8 -2 -17 3 -20 6 -4 10 3 10 14 0 25 -6 27 -13 6z"/>
<path d="M2840 1608 c-11 -4 -20 -10 -20 -12 0 -3 11 -1 24 4 15 5 27 5 33 -1
7 -7 12 -6 16 3 5 15 -20 18 -53 6z"/>
<path d="M3345 1610 c-4 -6 -10 -8 -15 -5 -5 3 -11 1 -14 -4 -7 -11 17 -22 30
-13 10 7 17 32 10 32 -3 0 -8 -5 -11 -10z"/>
<path d="M3421 1606 c-7 -8 -22 -12 -34 -10 -20 4 -21 4 -2 -4 24 -11 41 -6
49 14 7 18 2 18 -13 0z"/>
<path d="M1823 1603 c-15 -5 -17 -23 -4 -23 5 0 11 7 15 15 3 8 4 15 3 14 -1
0 -8 -3 -14 -6z"/>
<path d="M3478 1600 c-15 -4 -30 -5 -34 -1 -4 3 -4 1 -1 -5 7 -12 67 -6 67 7
0 5 -1 9 -2 8 -2 0 -15 -4 -30 -9z"/>
<path d="M2685 1590 c-3 -5 -1 -10 4 -10 6 0 11 5 11 10 0 6 -2 10 -4 10 -3 0
-8 -4 -11 -10z"/>
<path d="M2907 1593 c-14 -13 -6 -29 14 -29 18 0 18 2 5 12 -9 6 -13 14 -9 17
3 4 4 7 1 7 -2 0 -8 -3 -11 -7z"/>
<path d="M3180 1596 c0 -2 7 -7 16 -10 8 -3 12 -2 9 4 -6 10 -25 14 -25 6z"/>
<path d="M1768 1583 c6 -2 18 -2 25 0 6 3 1 5 -13 5 -14 0 -19 -2 -12 -5z"/>
<path d="M4148 1583 c7 -3 16 -2 19 1 4 3 -2 6 -13 5 -11 0 -14 -3 -6 -6z"/>
<path d="M2789 1563 c-6 -7 -10 -13 -8 -14 39 -8 40 -7 27 9 -9 11 -9 14 -1 9
18 -11 83 -15 83 -5 0 4 -3 8 -7 9 -5 0 -25 1 -46 3 -22 2 -42 -2 -48 -11z"/>
<path d="M2705 1560 c-19 -8 -19 -9 3 -9 12 -1 22 4 22 9 0 6 -1 10 -2 9 -2 0
-12 -4 -23 -9z"/>
<path d="M2760 1551 c0 -11 4 -22 9 -25 4 -3 6 6 3 19 -5 30 -12 33 -12 6z"/>
<path d="M3138 1563 c12 -2 22 -11 22 -18 0 -8 4 -17 10 -20 6 -4 7 2 1 17 -5
14 -17 24 -32 25 -23 1 -23 1 -1 -4z"/>
<path d="M3230 1566 c0 -2 7 -6 15 -10 8 -3 15 -1 15 4 0 6 -7 10 -15 10 -8 0
-15 -2 -15 -4z"/>
<path d="M3355 1560 c-8 -13 15 -13 35 0 12 8 11 10 -7 10 -12 0 -25 -4 -28
-10z"/>
<path d="M3420 1560 c-13 -8 -13 -10 2 -10 9 0 20 5 23 10 8 13 -5 13 -25 0z"/>
<path d="M1800 1552 c0 -10 36 -9 46 1 4 4 -5 7 -19 7 -15 0 -27 -4 -27 -8z"/>
<path d="M1895 1550 c4 -6 10 -8 15 -5 4 3 14 -3 21 -12 12 -14 12 -16 -1 -8
-8 4 -12 5 -8 0 4 -4 2 -15 -5 -24 -11 -14 -10 -15 8 -1 11 8 23 19 27 25 4 5
26 8 50 6 24 -3 67 -4 96 -3 33 1 52 -3 52 -10 0 -6 3 -8 6 -5 4 4 1 14 -7 23
-11 14 -10 16 11 12 16 -2 27 -12 31 -28 4 -14 8 -20 9 -15 1 6 3 15 5 20 1 6
3 15 4 20 1 6 6 3 11 -5 5 -8 24 -15 44 -15 19 0 32 3 30 6 -2 4 3 9 11 13 8
3 17 0 21 -6 4 -7 9 -6 15 3 6 10 9 7 9 -11 0 -19 -3 -21 -12 -12 -14 14 -28
16 -28 3 0 -16 43 -20 64 -5 33 23 90 18 125 -12 25 -20 31 -22 31 -10 0 9 -7
19 -16 23 -15 5 -15 7 0 15 43 24 3 28 -270 28 -205 0 -283 -3 -278 -11 5 -8
1 -8 -14 0 -26 14 -65 14 -57 1z m200 -10 c3 -5 1 -10 -4 -10 -6 0 -11 5 -11
10 0 6 2 10 4 10 3 0 8 -4 11 -10z m178 3 c-7 -2 -19 -2 -25 0 -7 3 -2 5 12 5
14 0 19 -2 13 -5z"/>
<path d="M2546 1549 c2 -4 -4 -13 -13 -19 -17 -11 -17 -11 1 -6 10 4 25 1 32
-5 12 -10 13 -9 8 5 -3 9 -1 17 5 17 6 1 17 2 24 3 6 1 17 -5 24 -14 6 -8 15
-12 19 -7 4 4 2 7 -4 7 -7 0 -12 5 -12 10 0 6 7 10 15 10 8 0 15 -7 15 -17 0
-18 13 -10 16 11 1 10 -15 13 -67 13 -37 0 -66 -4 -63 -8z"/>
<path d="M2985 1550 c3 -5 8 -10 11 -10 2 0 4 5 4 10 0 6 -5 10 -11 10 -5 0
-7 -4 -4 -10z"/>
<path d="M3086 1552 c-3 -5 1 -9 9 -9 8 0 12 4 9 9 -3 4 -7 8 -9 8 -2 0 -6 -4
-9 -8z"/>
<path d="M3904 1536 l-22 -21 23 0 c13 0 23 4 22 9 -1 5 12 10 28 11 17 1 37
5 45 8 8 3 26 8 40 10 14 2 -6 4 -45 5 -59 0 -74 -4 -91 -22z"/>
<path d="M4084 1553 c8 -8 56 -11 51 -3 -3 4 -16 8 -30 8 -14 0 -24 -3 -21 -5z"/>
<path d="M2700 1528 c0 -11 12 -10 30 2 12 7 10 9 -8 7 -12 0 -22 -5 -22 -9z"/>
<path d="M2839 1527 c5 -5 19 -7 32 -5 20 3 19 5 -9 9 -20 3 -29 2 -23 -4z"/>
<path d="M2937 1529 c7 -7 15 -10 18 -7 3 3 -2 9 -12 12 -14 6 -15 5 -6 -5z"/>
<path d="M4004 1531 c4 -5 -7 -12 -24 -16 -17 -4 -27 -11 -24 -16 4 -6 10 -6
18 0 7 6 15 9 17 7 2 -3 15 4 29 14 l25 20 -23 0 c-13 0 -21 -4 -18 -9z"/>
<path d="M4070 1519 c0 -5 5 -7 10 -4 6 3 10 8 10 11 0 2 -4 4 -10 4 -5 0 -10
-5 -10 -11z"/>
<path d="M4114 1523 c15 -4 16 -7 5 -15 -11 -7 -11 -9 -1 -6 20 5 16 23 -5 25
-15 2 -15 1 1 -4z"/>
<path d="M2409 1515 c-4 -14 -6 -21 -13 -37 -4 -10 -6 -23 -3 -30 4 -9 6 -8 6
3 1 19 42 30 65 17 12 -7 14 -5 9 9 -10 29 -59 58 -64 38z"/>
<path d="M2793 1501 c-15 -24 4 -45 27 -31 13 8 12 10 -2 10 -10 0 -18 4 -18
10 0 5 7 7 15 4 11 -5 13 -2 9 10 -8 21 -17 20 -31 -3z"/>
<path d="M3219 1503 c-13 -16 -12 -17 4 -4 16 13 21 21 13 21 -2 0 -10 -8 -17
-17z"/>
<path d="M1983 1503 c-7 -2 -13 -12 -13 -20 0 -9 3 -13 7 -10 3 4 12 2 20 -5
11 -9 12 -7 7 7 -6 15 -4 16 15 6 16 -9 20 -18 15 -33 -4 -14 -2 -18 5 -14 17
11 13 41 -7 59 -19 17 -28 19 -49 10z"/>
<path d="M2092 1501 c-11 -6 -10 -10 0 -19 11 -8 14 -7 14 9 0 10 0 19 -1 19
0 0 -6 -4 -13 -9z"/>
<path d="M2950 1501 c0 -5 7 -12 16 -15 14 -5 15 -4 4 9 -14 17 -20 19 -20 6z"/>
<path d="M3833 1493 c9 -2 25 -2 35 0 9 3 1 5 -18 5 -19 0 -27 -2 -17 -5z"/>
<path d="M2898 1483 c7 -3 16 -2 19 1 4 3 -2 6 -13 5 -11 0 -14 -3 -6 -6z"/>
<path d="M2933 1475 c0 -8 4 -12 9 -9 5 3 6 10 3 15 -9 13 -12 11 -12 -6z"/>
<path d="M3980 1481 c0 -6 4 -13 10 -16 6 -3 7 1 4 9 -7 18 -14 21 -14 7z"/>
<path d="M4030 1486 c0 -3 9 -10 20 -16 11 -6 20 -8 20 -6 0 3 -9 10 -20 16
-11 6 -20 8 -20 6z"/>
<path d="M4168 1473 c6 -2 18 -2 25 0 6 3 1 5 -13 5 -14 0 -19 -2 -12 -5z"/>
<path d="M3755 1459 c-4 -6 -5 -12 -2 -15 2 -3 7 2 10 11 7 17 1 20 -8 4z"/>
<path d="M3064 1448 c3 -10 1 -18 -5 -18 -6 0 -7 -5 -3 -11 4 -7 10 -7 16 -1
7 7 6 16 -2 29 -10 16 -11 16 -6 1z"/>
<path d="M3997 1446 c-10 -8 -14 -16 -10 -19 5 -3 14 3 21 14 14 22 13 23 -11
5z"/>
<path d="M3526 1442 c-2 -4 4 -9 15 -9 11 -1 17 2 14 8 -7 11 -22 12 -29 1z"/>
<path d="M2080 1429 c0 -5 5 -7 10 -4 6 3 10 8 10 11 0 2 -4 4 -10 4 -5 0 -10
-5 -10 -11z"/>
<path d="M2900 1430 c0 -5 5 -10 11 -10 5 0 7 5 4 10 -3 6 -8 10 -11 10 -2 0
-4 -4 -4 -10z"/>
<path d="M3640 1430 c-9 -6 -10 -10 -3 -10 6 0 15 5 18 10 8 12 4 12 -15 0z"/>
<path d="M3386 1407 c3 -10 9 -15 12 -12 3 3 0 11 -7 18 -10 9 -11 8 -5 -6z"/>
<path d="M3735 1398 l-20 -20 33 16 c33 17 41 26 20 25 -7 0 -22 -9 -33 -21z"/>
<path d="M3821 1403 c0 -11 3 -13 6 -5 2 6 9 12 14 12 6 0 8 -4 5 -9 -3 -5 13
-11 36 -15 50 -8 62 -1 13 8 -19 4 -35 11 -35 16 0 6 -9 10 -20 10 -13 0 -20
-6 -19 -17z"/>
<path d="M3298 1389 c13 -17 66 -33 56 -18 -3 5 -13 9 -23 9 -9 0 -23 6 -31
13 -12 10 -12 9 -2 -4z"/>
<path d="M3690 1379 c0 -5 5 -7 10 -4 6 3 10 8 10 11 0 2 -4 4 -10 4 -5 0 -10
-5 -10 -11z"/>
<path d="M3747 1383 c-12 -12 -7 -22 8 -17 8 4 15 10 15 15 0 11 -14 12 -23 2z"/>
<path d="M3796 1353 c-4 -9 -1 -21 5 -27 9 -8 10 -7 6 7 -4 11 -1 17 9 17 8 0
12 5 9 10 -9 15 -22 12 -29 -7z"/>
<path d="M3889 1323 c-13 -16 -12 -17 4 -4 16 13 21 21 13 21 -2 0 -10 -8 -17
-17z"/>
<path d="M3925 1330 c-3 -5 -2 -10 4 -10 5 0 13 5 16 10 3 6 2 10 -4 10 -5 0
-13 -4 -16 -10z"/>
<path d="M3910 1300 c0 -5 5 -10 11 -10 5 0 7 5 4 10 -3 6 -8 10 -11 10 -2 0
-4 -4 -4 -10z"/>
<path d="M3868 1293 c6 -2 18 -2 25 0 6 3 1 5 -13 5 -14 0 -19 -2 -12 -5z"/>
<path d="M3958 1283 c7 -3 16 -2 19 1 4 3 -2 6 -13 5 -11 0 -14 -3 -6 -6z"/>
<path d="M3875 1270 c3 -5 8 -10 11 -10 2 0 4 5 4 10 0 6 -5 10 -11 10 -5 0
-7 -4 -4 -10z"/>
<path d="M3848 1253 c7 -3 16 -2 19 1 4 3 -2 6 -13 5 -11 0 -14 -3 -6 -6z"/>
<path d="M3985 1240 c3 -5 8 -10 11 -10 2 0 4 5 4 10 0 6 -5 10 -11 10 -5 0
-7 -4 -4 -10z"/>
</g>
</svg>
